<?xml version="1.0" encoding="UTF-8" standalone="no"?>
<svg
   xmlns:dc="http://purl.org/dc/elements/1.1/"
   xmlns:cc="http://creativecommons.org/ns#"
   xmlns:rdf="http://www.w3.org/1999/02/22-rdf-syntax-ns#"
   xmlns:svg="http://www.w3.org/2000/svg"
   xmlns="http://www.w3.org/2000/svg"
   viewBox="0 0 250 250"
   height="250"
   width="250"
   version="1.1"
   id="svg2">
  <metadata
     id="metadata8">
    <rdf:RDF>
      <cc:Work
         rdf:about="">
        <dc:format>image/svg+xml</dc:format>
        <dc:type
           rdf:resource="http://purl.org/dc/dcmitype/StillImage" />
        <dc:title></dc:title>
      </cc:Work>
    </rdf:RDF>
  </metadata>
  <defs
     id="defs6" />
  <path
     id="path4138"
     d="M 106.25627,235.07666 C 50.902564,224.58026 11.34226,174.46277 14.508941,118.84534 c 2.87029,-50.411812 37.2765,-91.694323 86.668909,-103.990245 11.71244,-2.915736 39.10983,-2.915736 50.82227,0 41.8603,10.420851 73.72745,42.28405 84.21457,84.204111 3.22999,12.911244 2.86305,40.365084 -0.71556,53.536134 -10.6653,39.25351 -42.10289,70.57165 -81.05543,80.74742 -12.95602,3.38458 -35.25173,4.18683 -48.18743,1.7339 z m 45.91263,-13.78985 c 34.42676,-9.39342 61.79189,-36.92581 71.4521,-71.88878 3.10317,-11.2312 3.10317,-38.62417 0,-49.855381 -9.73398,-35.229988 -36.87435,-62.370345 -72.10433,-72.104331 -11.19435,-3.092982 -38.58386,-3.100765 -49.92769,-0.01419 -34.464173,9.377455 -62.668752,37.582034 -72.046207,72.04621 -3.086576,11.343831 -3.078793,38.733341 0.01419,49.927691 10.783609,39.02886 42.875509,67.86213 82.657027,74.264 7.1734,1.15437 32.54732,-0.35404 39.95492,-2.37522 z m -48.56672,-9.28773 c -31.879689,-8.59143 -57.282942,-34.51784 -65.019586,-66.3586 -2.601346,-10.70604 -2.601346,-31.63424 0,-42.34028 6.303458,-25.942374 24.59178,-48.524295 48.631389,-60.048711 13.573447,-6.507011 23.770757,-8.78115 39.374997,-8.78115 15.60424,0 25.80156,2.274139 39.375,8.78115 18.56264,8.898797 32.94505,23.281208 41.84385,41.84385 6.50701,13.573444 8.78115,23.770761 8.78115,39.375001 0,15.60424 -2.27414,25.80156 -8.78115,39.375 -11.52441,24.03961 -34.10634,42.32793 -60.04871,48.63139 -11.38599,2.76656 -32.98585,2.53291 -44.15694,-0.47765 z m 25.04859,-18.15374 c 2.20375,-7.5625 4.04762,-14.63605 4.09751,-15.71901 0.073,-1.58547 -8.15065,-13.45863 -12.30692,-17.76844 -0.69461,-0.72026 -16.65533,7.10176 -19.80626,9.70666 -1.024838,0.84724 -4.069932,32.3777 -3.20812,33.21848 2.032974,1.98337 14.89076,4.76237 21.00199,4.53924 l 6.21498,-0.22693 4.00682,-13.75 z m 20.82816,11.85106 c 2.62072,-0.76249 4.58947,-1.90534 4.375,-2.53965 -0.64554,-1.90922 -15.10553,-20.0125 -15.59445,-19.52357 -0.72669,0.72668 -6.61541,21.28812 -6.64428,23.19953 -0.0205,1.35869 1.40422,1.57529 6.53628,0.9937 3.60937,-0.40901 8.70672,-1.36752 11.32745,-2.13001 z M 92.086986,187.05713 c 0.827698,-6.92274 1.281459,-12.58679 1.008358,-12.58679 -1.125193,0 -21.524041,11.51734 -22.127113,12.49312 -0.705697,1.14184 18.071351,14.22294 19.034108,13.26019 0.318858,-0.31886 1.256949,-6.2438 2.084647,-13.16652 z m 81.371734,7.25626 c 5.26855,-3.52381 9.83292,-7.0682 10.14306,-7.87641 0.97781,-2.54814 -14.73666,-29.48153 -17.58134,-30.13303 -1.40606,-0.32201 -6.44817,-0.72568 -11.20471,-0.89705 l -8.64825,-0.31156 -2.11389,7.02872 c -4.23617,14.08534 -4.67747,12.25918 6.28907,26.02469 5.50845,6.91438 10.8077,12.57159 11.77612,12.57159 0.96841,0 6.07139,-2.88313 11.33994,-6.40695 z M 80.706739,173.94166 c 14.775789,-8.13762 14.457175,-7.68473 14.945683,-21.24457 l 0.311561,-8.64825 -7.028727,-2.11389 c -14.085337,-4.23617 -12.259175,-4.67747 -26.024689,6.28906 -6.914372,5.50845 -12.571584,10.61057 -12.571584,11.33803 0,3.62018 13.3133,22.71998 15.450344,22.16569 0.810857,-0.21032 7.523693,-3.71404 14.917412,-7.78606 z m 115.833341,-2.76313 c 3.51008,-5.24799 6.12106,-9.80269 5.80221,-10.12154 -0.77536,-0.77536 -25.75331,-3.73789 -25.75331,-3.05449 0,1.69073 12.20617,22.71784 13.18764,22.71784 0.20982,0 3.25338,-4.29381 6.76346,-9.54181 z m -58.47233,-10.45819 2.00953,-7.5 -5.18165,0.0397 c -2.84991,0.0219 -6.15923,0.78204 -7.35404,1.68926 -2.01212,1.5278 -1.83839,2.0782 2.35471,7.46024 2.48992,3.19591 4.89494,5.81075 5.34452,5.81075 0.44957,0 1.72168,-3.375 2.82693,-7.5 z m -23.48668,-6.03495 c 0.89256,-1.44419 -5.42451,-7.20989 -8.78105,-8.01463 -2.345,-0.56221 -2.75657,0.037 -3.4375,5.00492 -1.49183,10.88408 -1.59115,10.75108 5.388,7.21448 3.38885,-1.71726 6.46259,-3.6094 6.83055,-4.20477 z m 93.58054,-8.96505 c 1.22205,-4.46875 2.07126,-10.64726 1.88713,-13.73003 l -0.33476,-5.60502 -15.25466,-4.29256 -15.25465,-4.29256 -4.74535,3.35261 c -2.60994,1.84393 -6.61405,4.91023 -8.89804,6.814 l -4.15269,3.46138 5.25135,9.33359 c 2.88825,5.13348 5.40069,9.50858 5.58321,9.72244 0.55476,0.65002 27.25131,3.7464 30.58369,3.54721 2.72764,-0.16304 3.38782,-1.19151 5.33477,-8.31106 z M 58.467647,143.96972 c 5.176468,-4.05659 9.207792,-7.57959 8.958498,-7.82888 -0.727442,-0.72745 -21.289147,-6.61544 -23.202732,-6.64428 -1.374701,-0.0207 -1.58187,1.48459 -0.985576,7.16128 0.875297,8.33279 3.153265,15.58922 4.726682,15.0568 0.600253,-0.20311 5.32666,-3.68832 10.503128,-7.74492 z M 161.0088,143.3088 c -1.71726,-3.38885 -3.62756,-6.47381 -4.24511,-6.85549 -1.6467,-1.01771 -7.30075,5.08537 -7.97401,8.60727 -0.61389,3.2114 0.66859,3.69096 11.25786,4.20971 l 4.08355,0.20005 -3.12229,-6.16154 z m -22.73475,0.69806 c 10.44074,-5.71878 14.18972,-20.00824 8.13094,-30.99162 -8.30855,-15.061774 -31.32348,-15.061774 -39.63202,0 -7.631298,13.83405 -0.15937,30.48199 15.24131,33.95861 5.24065,1.18305 10.4028,0.2411 16.25977,-2.96699 z m -20.59407,-5.39116 c -9.93482,-6.16577 -9.81505,-22.42971 0.20879,-28.35093 4.43902,-2.62219 12.9614,-2.62219 17.40042,0 10.12484,5.98089 10.12484,22.43026 0,28.41115 -4.41161,2.606 -13.36248,2.5754 -17.60921,-0.0602 z m 15.61495,-6.48071 c 3.802,-3.32685 4.73186,-7.29546 2.7953,-11.93028 -3.47616,-8.31965 -15.5139,-8.34942 -18.98289,-0.0469 -4.46243,10.68008 7.52973,19.5531 16.18759,11.97722 z m -37.060682,-6.40812 c -1.707799,-2.43823 -1.883423,-2.39089 -7.571807,2.04089 -3.202902,2.49535 -5.823458,4.91324 -5.823458,5.37309 0,0.45984 3.234375,1.68206 7.1875,2.71608 l 7.1875,1.88001 0.384308,-4.75698 c 0.214906,-2.66011 -0.386362,-5.85726 -1.364043,-7.2531 z m -13.926254,-0.72921 c 4.073294,-3.14747 7.850339,-6.1512 8.393434,-6.67494 0.720271,-0.69461 -7.101762,-16.65533 -9.70666,-19.806268 C 80.139295,97.481655 48.608833,94.450489 47.739819,95.319503 45.806442,97.25288 42.691039,111.9118 43.079547,117.2475 l 0.384436,5.2798 13.75,4.00582 c 7.5625,2.20319 14.636055,4.04663 15.719011,4.09652 1.082957,0.0499 5.301707,-2.4845 9.375,-5.63197 z m 83.343486,-4.71935 c 2.57812,-2.04951 4.6875,-4.07532 4.6875,-4.5018 0,-0.42648 -3.375,-1.6797 -7.5,-2.78494 l -7.5,-2.00953 0,4.88611 c 0,5.40879 2.27845,10.11792 4.31269,8.91352 0.72177,-0.42734 3.42168,-2.45384 5.99981,-4.50336 z m 44.29357,-7.37047 c -0.97776,-8.62824 -3.22662,-16.190368 -4.66966,-15.702453 -1.95669,0.661586 -20.00625,15.111783 -19.50369,15.614353 0.81994,0.81993 20.08064,6.39096 22.55466,6.52378 2.1208,0.11386 2.28633,-0.54427 1.6187,-6.43568 z m -105.5553,-9.03547 c 0.48999,-2.56321 -0.0455,-2.94856 -5.050796,-3.63461 -10.752646,-1.473821 -10.67886,-1.517808 -7.624107,4.54508 4.39504,8.72301 4.8057,8.97079 8.693853,5.2457 1.88812,-1.80893 3.6796,-4.57921 3.98105,-6.15617 z m 85.79799,-3.15345 c 6.95818,-5.500781 12.65124,-10.797407 12.65124,-11.77028 0,-2.22449 -12.29879,-20.729549 -14.28336,-21.491101 -2.54814,-0.977816 -29.48153,14.736669 -30.13303,17.581342 -0.32201,1.406052 -0.72569,6.463713 -0.89705,11.239248 l -0.31156,8.682791 9.375,2.78721 c 5.15625,1.53297 9.72881,2.82884 10.16126,2.87971 0.43244,0.0509 6.47931,-4.40814 13.4375,-9.90892 z m -38.6708,-10.332138 0.072,-3.458558 -6.16154,3.122287 c -3.38885,1.717259 -6.4626,3.609409 -6.83055,4.204777 -0.90365,1.46213 5.4976,7.357082 8.61709,7.935542 1.99956,0.37078 2.67324,-0.4181 3.36546,-3.940959 0.476,-2.422492 0.89788,-5.960883 0.9375,-7.86309 z m -25.88057,3.604547 c 2.01212,-1.527805 1.8384,-2.078204 -2.35472,-7.460245 -2.48991,-3.19591 -4.89494,-5.810745 -5.34451,-5.810745 -0.44957,0 -1.72169,3.375 -2.82693,7.5 l -2.00953,7.5 5.18165,-0.03975 c 2.84991,-0.02186 6.15923,-0.78203 7.35404,-1.689256 z M 109.15899,86.816612 C 113.29504,72.835196 113.74115,74.66402 102.82682,60.858 97.331952,53.907286 92.040157,48.220339 91.067284,48.220339 c -2.234544,0 -20.731219,12.303134 -21.497042,14.298839 -0.461553,1.202785 13.022992,27.12208 15.289392,29.388479 0.900956,0.900956 12.801515,2.297727 17.912206,2.10236 4.11528,-0.157315 4.40082,-0.478902 6.38714,-7.193405 z M 70.987834,80.204708 c -3.208085,-5.88531 -6.309476,-10.995115 -6.891979,-11.355122 -1.159533,-0.716631 -14.215112,18.07918 -13.23712,19.057173 0.644746,0.644744 24.814393,3.74785 25.533614,3.278222 0.235603,-0.153839 -2.19643,-5.094962 -5.404515,-10.980273 z m 72.051736,4.10447 c 5.04592,-2.838638 9.33288,-5.293991 9.52658,-5.45634 0.7631,-0.639606 4.02809,-32.112723 3.43148,-33.078055 -1.07966,-1.746926 -17.49366,-5.251302 -22.61829,-4.828983 l -4.84818,0.399539 -4.00539,13.75 c -2.20296,7.5625 -4.0462,14.623208 -4.09609,15.690461 -0.0735,1.57223 11.92511,18.684539 13.101,18.684539 0.18395,0 4.46295,-2.322523 9.50889,-5.161161 z m 28.0276,-15.555854 c 5.7684,-3.144359 10.78256,-6.19361 11.14256,-6.776113 0.7057,-1.14184 -18.07135,-14.222941 -19.0341,-13.260183 -0.74745,0.747449 -3.75069,25.753311 -3.09301,25.753311 0.2731,0 5.21615,-2.572658 10.98455,-5.717015 z M 118.45414,54.349789 c 4.29327,-14.631014 4.44869,-14.123601 -4.05266,-13.230596 -8.33278,0.875297 -15.589227,3.153265 -15.056802,4.726682 0.631825,1.867163 15.094792,19.940642 15.573802,19.461627 0.2493,-0.249294 1.84034,-5.180264 3.53565,-10.957713 z"
     style="fill:#000000" />
</svg>
